<svg width="512" height="512" viewBox="0 0 512 512" fill="none" xmlns="http://www.w3.org/2000/svg">
  <rect width="512" height="512" rx="28" fill="#0A3A8C"/>
  <g stroke="#F7D548" stroke-width="18" stroke-linecap="round" stroke-linejoin="round">
    <path d="M116 316C96 286 86 250 86 212C86 126 158 58 246 58"/>
    <path d="M396 316C416 286 426 250 426 212C426 126 354 58 266 58"/>
    <path d="M136 348C174 392 226 416 256 416C286 416 338 392 376 348"/>
  </g>
  <g fill="#F7D548">
    <rect x="148" y="108" width="34" height="296" rx="10"/>
    <rect x="330" y="108" width="34" height="296" rx="10"/>
    <path d="M182 404V108L256 230L330 108V404H294V210L256 274L218 210V404H182Z"/>
    <circle cx="102" cy="202" r="12"/>
    <circle cx="410" cy="202" r="12"/>
    <circle cx="256" cy="454" r="12"/>
  </g>
</svg>
