<svg width="512" height="512" viewBox="0 0 512 512" fill="none" xmlns="http://www.w3.org/2000/svg">
  <rect width="512" height="512" rx="24" fill="#E8C998"/>
  <g fill="#4C2B16">
    <circle cx="256" cy="64" r="14"/>
    <rect x="248" y="88" width="16" height="56" rx="8"/>
    <rect x="120" y="110" width="32" height="200" rx="8"/>
    <rect x="360" y="110" width="32" height="200" rx="8"/>
    <circle cx="70" cy="220" r="14"/>
    <circle cx="442" cy="220" r="14"/>
    <path d="M256 142C189 142 136 195 136 262C136 302 154 337 183 361L201 341C177 321 162 292 162 262C162 209 203 168 256 168C309 168 350 209 350 262C350 292 335 321 311 341L329 361C358 337 376 302 376 262C376 195 323 142 256 142Z"/>
    <path d="M240 198C228 204 214 224 214 244C214 266 229 286 247 292C268 299 293 292 309 272C322 255 323 230 311 212C307 223 298 236 288 244C273 256 251 256 240 250C250 240 254 229 252 217C250 209 246 202 240 198Z"/>
    <path d="M104 336H408L386 382H126L104 336Z"/>
    <path d="M130 392C154 428 198 452 256 452C314 452 358 428 382 392H130Z"/>
    <rect x="248" y="452" width="16" height="32" rx="6"/>
    <circle cx="256" cy="500" r="12"/>
  </g>
</svg>
